<svg role="graphics-document" title="COR-logo" desc="" alt="" xmlns="http://www.w3.org/2000/svg" id="Layer_2" viewBox="0 0 984.9 395.1" preserveAspectRatio="xMinYMid meet">
  <defs>
    <style>.cls-1{fill:#fff;stroke-width:0px;}</style>
  </defs>
  <g id="Layer_1-2">
    <polygon class="cls-1" points="486.1 368.5 494.49 368.5 494.25 394.15 500 394.15 500.24 368.5 508.63 368.5 508.63 363.7 486.1 363.7 486.1 368.5"></polygon>
    <polygon class="cls-1" points="535 376.17 521.57 376.17 521.57 363.7 515.82 363.7 515.58 394.15 521.33 394.15 521.57 380.96 535 380.96 534.76 394.15 540.51 394.15 540.75 363.7 535 363.7 535 376.17"></polygon>
    <polygon class="cls-1" points="550.34 394.15 566.88 394.15 566.88 389.35 556.09 389.35 556.09 380.96 566.64 380.96 566.64 376.41 556.09 376.41 556.09 368.5 566.88 368.5 566.88 363.7 550.58 363.7 550.34 394.15"></polygon>
    <path class="cls-1" d="M595.16,372.57c0-4.79-3.12-8.87-10.31-8.87h-9.59l-.24,30.44h5.75v-12.22h1.68c.72,0,1.44.24,1.92.96l8.39,11.74,5.03-2.88-8.63-11.27c3.6-1.2,5.99-4.07,5.99-7.91ZM584.37,377.37h-3.36v-9.11h3.36c2.88,0,5.03,1.44,5.03,4.31,0,4.07-3.36,4.79-5.03,4.79Z"></path>
    <path class="cls-1" d="M613.62,363.46l-11.74,29.48,5.27,1.68,3.6-8.63h10.55l2.88,8.63,5.51-1.68-10.79-29.48h-5.27ZM612.42,381.44l3.84-11.98,3.6,11.98h-7.43Z"></path>
    <path class="cls-1" d="M645.73,363.7h-8.63l-.24,30.44h5.75v-11.98h3.12c5.99,0,11.03-2.88,11.03-9.11,0-5.75-3.12-9.35-11.03-9.35ZM645.5,377.61h-2.64v-9.35h2.88c4.07,0,5.03,2.88,5.03,4.55,0,2.88-2.4,4.79-5.27,4.79Z"></path>
    <polygon class="cls-1" points="664.19 394.15 680.73 394.15 680.73 389.35 669.94 389.35 669.94 380.96 680.49 380.96 680.49 376.41 669.94 376.41 670.18 368.5 680.73 368.5 680.73 363.7 664.43 363.7 664.19 394.15"></polygon>
    <path class="cls-1" d="M708.29,382.4c0,4.31-2.16,7.19-6.71,7.19-3.84,0-6.71-2.4-6.71-6.71,0-6.47.24-12.94.24-19.42h-5.75c0,6.47-.24,12.7-.24,19.18,0,7.91,5.03,11.98,12.22,11.98s12.46-4.07,12.46-11.51l.48-19.89h-5.75l-.24,19.18Z"></path>
    <polygon class="cls-1" points="721 368.5 729.63 368.5 729.39 394.15 734.9 394.15 735.14 368.5 743.53 368.5 743.77 363.7 721 363.7 721 368.5"></polygon>
    <polygon class="cls-1" points="750.48 394.15 756.23 394.15 756.47 363.7 750.72 363.7 750.48 394.15"></polygon>
    <path class="cls-1" d="M781.4,367.78c2.4,0,5.27.96,7.19,2.64l2.4-3.84c-2.64-2.4-6.23-3.6-9.83-3.6-9.11,0-15.58,6.47-15.58,15.82s6.71,15.82,15.82,15.82c3.36,0,6.71-.96,9.59-2.88l-2.16-3.84c-1.92.96-3.84,1.92-7.67,1.92-5.51,0-9.59-5.51-9.59-11.27s3.84-10.79,9.83-10.79Z"></path>
    <path class="cls-1" d="M806.57,368.02c2.16,0,3.84.96,5.75,1.92l2.4-4.07c-2.64-1.68-5.51-2.64-8.63-2.64-5.99,0-10.07,3.84-10.07,8.87,0,10.55,12.46,7.91,12.46,13.9,0,2.4-1.68,4.31-4.79,4.31-1.68,0-3.84-1.2-5.27-2.16l-2.4,4.55c2.4,1.44,5.27,2.4,8.15,2.4,5.99,0,10.07-3.84,10.07-9.11,0-9.83-12.7-7.91-12.7-13.9,0-2.64,2.4-4.07,5.03-4.07Z"></path>
    <path class="cls-1" d="M442.47,233.07c10.07,0,22.77,4.31,30.44,10.79l10.31-16.3c-11.51-9.59-26.13-14.62-41.23-14.62-37.63,0-64.72,27.33-64.72,66.16s28.04,65.44,65.68,65.44c14.38,0,28.52-4.07,40.27-12.22l-9.59-15.82c-7.67,4.31-15.82,8.15-31.88,8.15-23.73,0-40.27-22.29-40.27-46.5,0-25.41,16.3-45.06,40.99-45.06Z"></path>
    <path class="cls-1" d="M492.81,296.11c0,26.13,14.14,48.66,44.1,48.66,27.8,0,44.1-22.53,44.1-48.66s-14.86-48.66-44.1-48.66c-27.09,0-44.1,24.21-44.1,48.66ZM558.97,296.83c0,12.7-5.75,29.96-21.81,29.96s-21.81-18.94-21.81-29.96c0-12.7,5.03-31.4,21.81-31.4,14.86,0,21.81,12.22,21.81,31.4Z"></path>
    <path class="cls-1" d="M647.41,269.98l3.6-21.33c-2.16-.48-4.31-.96-6.47-.96-11.27.24-17.02,9.11-21.33,19.65l-.24-.48v-16.78h-22.29l-.96,92.28h22.53l.48-57.05c4.55-9.59,10.79-16.06,19.42-16.06,1.68,0,3.36.24,5.27.72Z"></path>
    <path class="cls-1" d="M695.59,344.53c14.62,0,25.41-6.47,34.28-17.5l-12.46-11.98c-5.27,5.27-10.79,10.31-18.94,10.31-11.03,0-19.65-10.79-19.65-30.2,0-13.9,6.95-29,20.85-29,7.91,0,12.94,4.31,18.7,8.87l12.7-12.22c-8.15-9.11-18.7-15.58-32.12-15.58-27.56,0-43.38,24.69-43.38,50.1,0,22.29,13.66,47.22,40.03,47.22Z"></path>
    <path class="cls-1" d="M778.53,247.45c-26.85,0-41.95,24.45-41.95,48.9,0,29,16.78,48.18,40.27,48.18,15.1,0,27.8-7.19,37.39-18.22l-12.7-11.74c-5.75,5.99-12.7,11.98-21.33,11.98-15.34,0-21.09-15.34-21.09-28.04h57.52c-.06-31.97-12.05-51.05-38.11-51.05ZM760.07,283.17c.96-9.11,8.63-19.89,18.7-19.89,11.74,0,16.3,10.07,16.78,19.89h-35.47Z"></path>
    <path class="cls-1" d="M816.64,298.75v-.24h0c0,.08,0,.16,0,.24Z"></path>
    <path class="cls-1" d="M877.04,247.21c-9.59,0-18.7,5.27-23.25,12.22h-.48v-9.59h-21.33l-.48,136.39h22.29l.48-50.82h.48c5.03,6.47,13.42,8.87,20.85,8.87,26.37,0,40.51-24.69,40.51-49.62,0-27.8-16.06-47.46-39.07-47.46ZM870.81,325.35c-8.15,0-12.7-4.55-15.82-8.39v-36.19h-.24c1.2-7.91,7.19-14.38,16.54-14.38,13.42,0,22.77,11.98,22.77,29.48,0,18.46-11.98,29.48-23.25,29.48Z"></path>
    <path class="cls-1" d="M978.43,323.68c-3.12,2.16-6.47,4.31-10.31,4.31-5.51,0-7.43-3.6-7.43-9.59,0-6.71,0-15.1.24-24.21l.48-27.09h20.37v-16.78l-20.37.24.72-32.84h-22.29l-.72,32.84-12.46-.24v16.78h12.46l-.48,28.04c-.24,7.91-.24,17.74-.24,22.05,0,19.42,9.83,27.56,25.17,27.56,2.64,0,8.15-.24,13.9-3.6l7.43-4.07-6.47-13.42Z"></path>
    <path class="cls-1" d="M519.9,223.9l89.65-67.17v-89.65L520.02,0l-2.12,1.41-84.05,62.98L347.91,0l-2.12,1.41-87.65,65.67v85.75l-82.45,61.78-85.93-64.39-2.12,1.41L0,217.31v89.65l89.65,67.17,86.05-64.48,86.05,64.48,89.65-67.17v-85.75l82.46-61.78,86.05,64.48ZM437.44,70.68l82.42-61.81,82.49,61.81v82.45l-82.45,61.78-82.45-61.78v-82.45ZM172.1,303.36l-82.45,61.78L7.19,303.36v-82.45l82.42-61.81,82.49,61.81v82.45ZM344.2,303.36l-82.45,61.78-82.45-61.78v-82.45l82.21-61.66,82.7,61.96v82.15ZM430.25,153.13l-82.25,61.63-82.66-61.93v-82.15l82.42-61.81,82.49,61.81v82.45Z"></path>
    <rect class="cls-1" x="88.73" y="318.52" width="73.23" height="7.19" transform="translate(-167.88 139.11) rotate(-36.77)"></rect>
  </g>
</svg>